<svg width="20" height="20" viewBox="0 0 20 20" fill="none" xmlns="http://www.w3.org/2000/svg">
<rect x="0.5" y="0.5" width="19" height="19" rx="9.5" fill="#F5222D" stroke="white"/>
<path d="M10.002 15.28C9.06869 15.28 8.29869 15.084 7.69202 14.692C7.08536 14.2907 6.78202 13.6933 6.78202 12.9C6.78202 12.2653 6.98269 11.752 7.38402 11.36C7.79469 10.9587 8.34069 10.6087 9.02202 10.31C8.41536 9.95533 7.94869 9.60067 7.62202 9.246C7.29536 8.882 7.13202 8.42 7.13202 7.86C7.13202 7.01067 7.39336 6.404 7.91602 6.04C8.44802 5.66667 9.14336 5.48 10.002 5.48C10.8514 5.48 11.542 5.65733 12.074 6.012C12.606 6.36667 12.872 6.936 12.872 7.72C12.872 8.23333 12.7087 8.686 12.382 9.078C12.0554 9.46067 11.6354 9.778 11.122 10.03C11.57 10.3007 11.934 10.548 12.214 10.772C12.5034 10.996 12.7414 11.2713 12.928 11.598C13.124 11.9247 13.222 12.312 13.222 12.76C13.222 13.6187 12.9187 14.2533 12.312 14.664C11.7147 15.0747 10.9447 15.28 10.002 15.28ZM10.492 9.68C10.828 9.43733 11.0847 9.17133 11.262 8.882C11.4487 8.58333 11.542 8.196 11.542 7.72C11.542 7.11333 11.3927 6.684 11.094 6.432C10.7954 6.17067 10.4314 6.04 10.002 6.04C9.58202 6.04 9.21802 6.16133 8.91002 6.404C8.61136 6.64667 8.46202 7.03867 8.46202 7.58C8.46202 8.34533 9.13869 9.04533 10.492 9.68ZM10.002 14.72C10.5247 14.72 10.968 14.5753 11.332 14.286C11.7054 13.9873 11.892 13.572 11.892 13.04C11.892 12.6667 11.794 12.3353 11.598 12.046C11.402 11.7567 11.15 11.5093 10.842 11.304C10.5434 11.0893 10.1467 10.8513 9.65202 10.59C9.16669 10.8327 8.78869 11.1267 8.51802 11.472C8.24736 11.808 8.11202 12.284 8.11202 12.9C8.11202 13.4973 8.29402 13.95 8.65802 14.258C9.02202 14.566 9.47002 14.72 10.002 14.72Z" fill="white"/>
</svg>
